<svg xmlns="http://www.w3.org/2000/svg" xmlns:xlink="http://www.w3.org/1999/xlink" width="24" height="24" viewBox="0.123 0.123 701.754 701.754">
  <defs>
    <style>
      .cls-1, .cls-3 {
        fill: #9900f0;
      }

      .cls-1 {
        stroke: #000;
        stroke-width: 1px;
      }

      .cls-2, .cls-4 {
        fill: #fff;
      }

      .cls-2, .cls-3 {
        fill-rule: evenodd;
      }

      .cls-4 {
        font-size: 722.12px;
        filter: url(#filter);
        text-anchor: middle;
        font-family: "Chakra Petch";
        font-weight: 700;
        font-style: italic;
      }
    </style>
    <filter id="filter" x="129" y="85" width="444" height="535" filterUnits="userSpaceOnUse">
      <feOffset result="offset" dy="1" in="SourceAlpha"/>
      <feGaussianBlur result="blur" stdDeviation="3.606"/>
      <feFlood result="flood" flood-opacity="0.18"/>
      <feComposite result="composite" operator="in" in2="blur"/>
      <feBlend result="blend" in="SourceGraphic"/>
    </filter>
  </defs>
  <rect id="Obdélník_1" data-name="Obdélník 1" class="cls-1" x="1" y="1" width="700" height="700" rx="144" ry="144"/>
  <path id="Výplň_barvou_2" data-name="Výplň barvou 2" class="cls-2" d="M558,98c-0.319,28.9-13.19,54.357-14,84H392c0.281,19.631-5.582,40.778-10,58-2.812,10.963-1.17,19.042-4,30-4.849,18.777-7.219,41.347-12,60-5.007,19.536-5.287,39.548-10,58v8c-3.762,14.605-6.262,33.389-10,48q-1,10-2,20c-11.363,44.234-15.754,92.3-25,138l-3,1c-5.091,3.175-19.765,1-27,1H220c-0.39-18.794,5.808-41.754,10-58q1-10,2-20c3.788-14.6,6.24-33.392,10-48,3.811-14.809,2.224-27.335,6-42,8.719-33.859,11.322-72.13,20-106,3.8-14.818,2.257-27.321,6-42a599.3,599.3,0,0,0,14-78c0.8-6.95,6.625-19.983,4-26-2.445-3.577-29.7-2-37-2H144c-0.2-11.1,1.886-19.6,4-28,4.587-18.22,5.252-36.465,9-54l3-1c5.66-3.494,22.088-1,30-1H558Z"/>
  <path id="Výplň_barvou_1" data-name="Výplň barvou 1" class="cls-3" d="M133,1H537c18.388,0,37.024-1.132,52,3,24.544,6.772,44.182,17.622,62,31,5.715,4.291,10.658,11.216,15,17,11.937,15.9,23.064,31.467,30,53,10.261,31.854,5,82.348,5,122V539c0,15.57,1.314,31.819-2,45-9.208,36.625-26.58,67.649-53,87-19.168,14.039-40.666,22.752-68,29-16.278,3.721-38,1-56,1H213c-32.181,0-72.707,4.53-100-3-35.962-9.922-66.064-29.031-85-56C-2.489,598.576,1,552.049,1,479V225C1,167.647-2.447,109.226,19,74,35.8,46.413,59.771,24.1,91,11c8.359-3.507,18.006-5.747,27-8C122.872,1.78,129.258,3.32,133,1Zm23,97c0.341,30.047-11.489,53.27-12,84H292c0.631,1.754.193,0.971,1,2-6.975,41.617-12.7,85.95-23,126q-1,10-2,20c-4.84,18.78-7.208,41.35-12,60q-1,10-2,20c-3.761,14.606-6.248,33.392-10,48q-1,10-2,20c-6.3,24.579-7.206,52.429-14,78-3.569,13.431-9.59,33.738-7,48h95c1.021-.8.274-0.355,2-1l1-3c4.8-8.1,4.155-30.963,7-42,4.841-18.779,7.223-41.347,12-60q1-10,2-20c11.541-44.749,14.526-95.034,26-140,3.746-14.679,2.2-27.181,6-42,3.742-14.609,6.272-33.388,10-48q1-10,2-20c3.5-13.742,7.688-29.835,8-46H544c-0.215-29.614,12.7-55.138,14-84H156Z"/>
  <text id="T" class="cls-4" x="300" y="604"><tspan x="300">T</tspan></text>
</svg>
